<?xml version="1.0"?>
<svg width="124" height="21" xmlns="http://www.w3.org/2000/svg" xmlns:svg="http://www.w3.org/2000/svg" xmlns:xlink="http://www.w3.org/1999/xlink">
 <defs>
  <symbol height="26" id="svg_21" viewBox="0 0 155 26" width="155" xmlns="http://www.w3.org/2000/svg">
   <mask height="26" id="svg_20" maskUnits="userSpaceOnUse" width="155" x="0" y="0">
    <path d="m11.2928,25.415l0,-22.0424l8.1413,0l0,-2.787557l-19.4341,0l0,2.787557l8.14131,0l0,22.0424l3.15149,0z" fill="black"/>
    <path d="m39.9537,22.6274l-12.5009,0l0,-8.5347l11.8531,0l0,-2.7532l-11.8531,0l0,-7.9669l12.5009,0l0,-2.787557l-15.6523,0l0,24.829957l15.6523,0l0,-2.7876z" fill="black"/>
    <path d="m65.8308,25.415l0,-24.829957l-3.1515,0l0,10.737257l-13.8665,0l0,-10.737257l-3.1514,0l0,24.829957l3.1514,0l0,-11.3051l13.8665,0l0,11.3051l3.1515,0z" fill="black"/>
    <path d="m75.3903,25.415l0,-19.25484l0.2801,0l13.7089,19.25484l3.0639,0l0,-24.829957l-3.1164,0l0,19.323657l-0.2801,0l-13.709,-19.323657l-3.0639,0l0,24.829957l3.1165,0z" fill="black"/>
    <path d="m109.514,0c-7.144,0 -11.6082,5.00728 -11.6082,12.9914c0,7.9497 4.3592,13.0086 11.6082,13.0086c7.213,0 11.555,-5.0761 11.555,-13.0086c0,-7.96691 -4.377,-12.9914 -11.555,-12.9914zm0,2.85639c5.165,0 8.316,3.92323 8.316,10.13501c0,6.1602 -3.134,10.1522 -8.316,10.1522c-5.253,0 -8.369,-3.992 -8.369,-10.1522c0,-6.21178 3.221,-10.13501 8.369,-10.13501z" fill="black"/>
    <path d="m138.77,25.415l0,-8.6724l3.029,-3.2866l9.122,11.959l4.079,0l-11.03,-14.1099l10.102,-10.720057l-3.957,0l-11.065,12.062257l-0.28,0l0,-12.062257l-3.152,0l0,24.829957l3.152,0z" fill="black"/>
   </mask>
   <g mask="url(#svg_20)">
    <rect fill="#1B1B1B" height="44.7551" width="35.8568" x="128.009" y="-3.17163"/>
   </g>
  </symbol>
 </defs>
 <mask height="21" id="mask0" maskUnits="userSpaceOnUse" width="124" x="0" y="0">
  <path d="m8.96426,20.5275l0,-17.80348l6.46264,0l0,-2.251485l-15.4269,0l0,2.251485l6.46261,0l0,17.80348l2.50165,0z" fill="white" id="svg_1"/>
  <path d="m31.7154,18.276l-9.9232,0l0,-6.8935l9.409,0l0,-2.22367l-9.409,0l0,-6.43481l9.9232,0l0,-2.251485l-12.4249,0l0,20.054965l12.4249,0l0,-2.2515z" fill="white" id="svg_2"/>
  <path d="m52.2568,20.5275l0,-20.054965l-2.5017,0l0,8.672405l-11.0073,0l0,-8.672405l-2.5016,0l0,20.054965l2.5016,0l0,-9.1311l11.0073,0l0,9.1311l2.5017,0z" fill="white" id="svg_3"/>
  <path d="m59.8451,20.5275l0,-15.55199l0.2224,0l10.8822,15.55199l2.4322,0l0,-20.054965l-2.4739,0l0,15.607565l-0.2224,0l-10.8822,-15.607565l-2.4321,0l0,20.054965l2.4738,0z" fill="white" id="svg_4"/>
  <path d="m86.9325,0c-5.6704,0 -9.2144,4.04434 -9.2144,10.4931c0,6.4209 3.4606,10.5069 9.2144,10.5069c5.726,0 9.1727,-4.0999 9.1727,-10.5069c0,-6.43486 -3.4745,-10.4931 -9.1727,-10.4931zm0,2.30708c4.0999,0 6.6016,3.16876 6.6016,8.18602c0,4.9755 -2.4878,8.1998 -6.6016,8.1998c-4.1694,0 -6.6433,-3.2243 -6.6433,-8.1998c0,-5.01726 2.5573,-8.18602 6.6433,-8.18602z" fill="white" id="svg_5"/>
  <path d="m110.156,20.5275l0,-7.0047l2.405,-2.6545l7.24,9.6592l3.239,0l-8.756,-11.39646l8.019,-8.658505l-3.141,0l-8.783,9.742565l-0.223,0l0,-9.742565l-2.501,0l0,20.054965l2.501,0z" fill="white" id="svg_6"/>
 </mask>
 <g class="layer">
  <title>Layer 1</title>
  <path d="m8.96426,20.5275l0,-17.80348l6.46264,0l0,-2.251485l-15.4269,0l0,2.251485l6.46261,0l0,17.80348l2.50165,0z" fill="#000000" id="svg_7"/>
  <path d="m31.7154,18.276l-9.9232,0l0,-6.8935l9.409,0l0,-2.22367l-9.409,0l0,-6.43481l9.9232,0l0,-2.251485l-12.4249,0l0,20.054965l12.4249,0l0,-2.2515z" fill="#000000" id="svg_8"/>
  <path d="m52.2568,20.5275l0,-20.054965l-2.5017,0l0,8.672405l-11.0072,0l0,-8.672405l-2.5017,0l0,20.054965l2.5017,0l0,-9.1311l11.0072,0l0,9.1311l2.5017,0z" fill="#000000" id="svg_9"/>
  <path d="m59.8451,20.5275l0,-15.55199l0.2224,0l10.8822,15.55199l2.4322,0l0,-20.054965l-2.4739,0l0,15.607565l-0.2224,0l-10.8822,-15.607565l-2.4321,0l0,20.054965l2.4738,0z" fill="#000000" id="svg_10"/>
  <path d="m86.9325,0c-5.6704,0 -9.2144,4.04434 -9.2144,10.4931c0,6.4209 3.4606,10.5069 9.2144,10.5069c5.726,0 9.1727,-4.0999 9.1727,-10.5069c0,-6.43486 -3.4745,-10.4931 -9.1727,-10.4931zm0,2.30708c4.0999,0 6.6016,3.16876 6.6016,8.18602c0,4.9755 -2.4878,8.1998 -6.6016,8.1998c-4.1694,0 -6.6433,-3.2243 -6.6433,-8.1998c0,-5.01726 2.5573,-8.18602 6.6433,-8.18602z" fill="#000000" id="svg_11"/>
  <path d="m110.156,20.5275l0,-7.0047l2.405,-2.6545l7.24,9.6592l3.239,0l-8.756,-11.39646l8.019,-8.658505l-3.141,0l-8.783,9.742565l-0.223,0l0,-9.742565l-2.501,0l0,20.054965l2.501,0z" fill="#000000" id="svg_12"/>
  <circle cx="20.5394" cy="10.2094" fill="#FEBA03" id="svg_13" r="1.92127"/>
  <circle cx="87.0009" cy="10.2094" fill="#FEBA03" id="svg_14" r="1.92127"/>
  <path d="m58.8477,2.49023l4.5541,6.54656l-4.197,0.03558l-0.3571,-6.58214z" fill="#FEBA03" id="svg_15"/>
  <path d="m71.4429,17.3984l-4.5542,-6.5465l4.197,-0.0356l0.3572,6.5821z" fill="#FEBA03" id="svg_16"/>
  <rect fill="#FEBA03" height="2.41938" id="svg_17" width="65.4655" x="21.6064" y="9"/>
  <g id="svg_18" mask="url(#mask0)">
   <rect fill="#000000" height="36.1484" id="svg_19" width="28.4633" x="101.614" y="-2.56152"/>
  </g>
  <use id="svg_22" transform="matrix(0.256516, 0, 0, 0.256516, 0, 0)" x="0" xlink:href="#svg_21" y="0"/>
  <g id="svg_23"/>
 </g>
</svg>