<svg width="1720" height="574" viewBox="0 0 1720 574" fill="none" xmlns="http://www.w3.org/2000/svg">
<mask id="mask0" mask-type="alpha" maskUnits="userSpaceOnUse" x="0" y="0" width="1720" height="574">
<rect width="1720" height="574" fill="#FEBA03"/>
</mask>
<g mask="url(#mask0)">
<path opacity="0.1" d="M1866 566C1866 651.604 1796.6 721 1711 721C1625.4 721 1556 651.604 1556 566C1556 480.396 1625.4 411 1711 411C1796.6 411 1866 480.396 1866 566Z" fill="white"/>
<path opacity="0.1" fill-rule="evenodd" clip-rule="evenodd" d="M103 554C148.84 554 186 516.84 186 471C186 425.16 148.84 388 103 388C57.1604 388 20 425.16 20 471C20 516.84 57.1604 554 103 554ZM103 531.117C136.201 531.117 163.117 504.202 163.117 471C163.117 437.798 136.201 410.883 103 410.883C69.7982 410.883 42.883 437.798 42.883 471C42.883 504.202 69.7982 531.117 103 531.117Z" fill="white"/>
<path opacity="0.1" fill-rule="evenodd" clip-rule="evenodd" d="M256 358C347.127 358 421 284.127 421 193C421 101.873 347.127 28 256 28C164.873 28 91 101.873 91 193C91 284.127 164.873 358 256 358ZM255.999 312.509C322.002 312.509 375.509 259.003 375.509 193C375.509 126.997 322.002 73.4907 255.999 73.4907C189.996 73.4907 136.49 126.997 136.49 193C136.49 259.003 189.996 312.509 255.999 312.509Z" fill="white"/>
<path opacity="0.1" fill-rule="evenodd" clip-rule="evenodd" d="M1443 302C1500.99 302 1548 254.99 1548 197C1548 139.01 1500.99 92 1443 92C1385.01 92 1338 139.01 1338 197C1338 254.99 1385.01 302 1443 302ZM1443.15 273.199C1485.15 273.199 1519.2 239.15 1519.2 197.148C1519.2 155.146 1485.15 121.096 1443.15 121.096C1401.15 121.096 1367.1 155.146 1367.1 197.148C1367.1 239.15 1401.15 273.199 1443.15 273.199Z" fill="white"/>
<path opacity="0.5" fill-rule="evenodd" clip-rule="evenodd" d="M860 33C1013.54 33 1138 -91.4648 1138 -245C1138 -398.535 1013.54 -523 860 -523C706.465 -523 582 -398.535 582 -245C582 -91.4648 706.465 33 860 33ZM859.999 -17.6449C971.204 -17.6449 1061.35 -107.795 1061.35 -219C1061.35 -330.205 971.204 -420.355 859.999 -420.355C748.793 -420.355 658.644 -330.205 658.644 -219C658.644 -107.795 748.793 -17.6449 859.999 -17.6449Z" fill="white"/>
</g>
</svg>
